<svg width="1512" height="1262" viewBox="0 0 1512 1262" fill="none" xmlns="http://www.w3.org/2000/svg">
<g opacity="0.1" clip-path="url(#clip0_35_47)">
<path d="M-666.555 262.341C-515.932 193.985 -468.787 266.356 -318.164 198C-167.541 129.644 -214.686 57.2729 -64.1069 -11.0633C86.4725 -79.3996 133.661 -7.0479 284.284 -75.4038C434.907 -143.76 387.761 -216.131 538.384 -284.487C689.007 -352.843 736.152 -280.471 886.818 -348.847C1037.48 -417.223 990.296 -489.574 1140.92 -557.93" stroke="url(#paint0_angular_35_47)" stroke-miterlimit="10"/>
<path d="M-289.203 841.605C-138.58 773.249 -91.4352 845.62 59.1875 777.265C209.81 708.909 162.665 636.537 313.245 568.201C463.824 499.865 511.013 572.217 661.635 503.861C812.258 435.505 765.113 363.133 915.736 294.778C1066.36 226.422 1113.5 298.793 1264.17 230.417C1414.84 162.042 1367.65 89.6902 1518.27 21.3343" stroke="url(#paint1_angular_35_47)" stroke-miterlimit="10"/>
<path d="M-477.879 551.973C-327.256 483.617 -280.111 555.988 -129.488 487.632C21.1348 419.277 -26.0103 346.905 124.569 278.569C275.149 210.233 322.337 282.584 472.96 214.229C623.583 145.873 576.437 73.5014 727.06 5.14546C877.683 -63.2104 924.828 9.16087 1075.49 -59.2147C1226.16 -127.59 1178.97 -199.942 1329.59 -268.298" stroke="url(#paint2_angular_35_47)" stroke-miterlimit="10"/>
<path d="M-100.527 1131.24C50.0954 1062.88 97.3364 1135.4 247.959 1067.04C398.582 998.689 351.341 926.17 501.92 857.834C652.5 789.498 699.784 861.996 850.407 793.641C1001.03 725.285 953.789 652.766 1104.41 584.41C1255.03 516.054 1302.28 588.573 1452.94 520.197C1603.61 451.822 1556.32 379.323 1706.95 310.967" stroke="url(#paint3_angular_35_47)" stroke-miterlimit="10"/>
<path d="M158.965 1529.57C309.588 1461.22 356.733 1533.59 507.356 1465.23C657.978 1396.88 610.833 1324.51 761.413 1256.17C911.992 1187.83 959.181 1260.19 1109.8 1191.83C1260.43 1123.47 1213.28 1051.1 1363.9 982.747C1514.53 914.391 1561.67 986.762 1712.34 918.387C1863 850.011 1815.82 777.66 1966.44 709.304" stroke="url(#paint4_angular_35_47)" stroke-miterlimit="10"/>
<path d="M-572.265 407.083C-421.643 338.727 -374.402 411.246 -223.779 342.89C-73.1561 274.534 -120.397 202.015 30.1824 133.679C180.762 65.3429 228.046 137.842 378.669 69.4858C529.292 1.12986 482.051 -71.3885 632.673 -139.744C783.296 -208.1 830.537 -135.582 981.203 -203.957C1131.87 -272.333 1084.59 -344.832 1235.21 -413.188" stroke="url(#paint5_angular_35_47)" stroke-miterlimit="10"/>
<path d="M-194.816 986.495C-44.1936 918.139 2.95148 990.51 153.574 922.154C304.197 853.799 257.052 781.427 407.631 713.091C558.211 644.755 605.399 717.106 756.022 648.751C906.645 580.395 859.5 508.023 1010.12 439.667C1160.75 371.312 1207.89 443.683 1358.56 375.307C1509.22 306.932 1462.03 234.58 1612.66 166.224" stroke="url(#paint6_angular_35_47)" stroke-miterlimit="10"/>
<path d="M-383.492 696.862C-232.869 628.506 -185.724 700.878 -35.1015 632.522C115.521 564.166 68.3762 491.795 218.956 423.458C369.535 355.122 416.723 427.474 567.346 359.118C717.969 290.762 670.824 218.391 821.447 150.035C972.069 81.679 1019.21 154.05 1169.88 85.6747C1320.55 17.2992 1273.36 -55.0525 1423.98 -123.408" stroke="url(#paint7_angular_35_47)" stroke-miterlimit="10"/>
<path d="M-6.14062 1276.13C144.482 1207.77 191.627 1280.14 342.25 1211.79C492.873 1143.43 445.728 1071.06 596.307 1002.72C746.887 934.388 794.075 1006.74 944.698 938.383C1095.32 870.027 1048.18 797.656 1198.8 729.3C1349.42 660.944 1396.57 733.316 1547.23 664.94C1697.9 596.565 1650.71 524.213 1801.33 455.857" stroke="url(#paint8_angular_35_47)" stroke-miterlimit="10"/>
<path d="M253.254 1674.32C403.877 1605.96 451.118 1678.48 601.74 1610.12C752.363 1541.77 705.122 1469.25 855.702 1400.91C1006.28 1332.58 1053.57 1405.08 1204.19 1336.72C1354.81 1268.36 1307.57 1195.85 1458.19 1127.49C1608.82 1059.13 1656.06 1131.65 1806.72 1063.28C1957.39 994.902 1910.1 922.403 2060.73 854.047" stroke="url(#paint9_angular_35_47)" stroke-miterlimit="10"/>
<path d="M-619.41 334.711C-468.787 266.356 -421.642 338.727 -271.019 270.371C-120.397 202.015 -167.542 129.644 -16.9624 61.3075C133.617 -7.0287 180.806 65.323 331.428 -3.03294C482.051 -71.3888 434.906 -143.76 585.529 -212.116C736.151 -280.472 783.297 -208.101 933.963 -276.476C1084.63 -344.852 1037.44 -417.203 1188.06 -485.559" stroke="url(#paint10_angular_35_47)" stroke-miterlimit="10"/>
<path d="M-242.059 913.977C-91.4358 845.621 -44.1949 918.139 106.428 849.783C257.051 781.427 209.81 708.909 360.389 640.573C510.969 572.236 558.253 644.735 708.876 576.379C859.498 508.023 812.257 435.505 962.88 367.149C1113.5 298.793 1160.74 371.312 1311.41 302.936C1462.08 234.561 1414.79 162.062 1565.41 93.7059" stroke="url(#paint11_angular_35_47)" stroke-miterlimit="10"/>
<path d="M-430.734 624.344C-280.112 555.988 -232.871 628.507 -82.2479 560.151C68.3749 491.795 21.134 419.276 171.713 350.94C322.293 282.604 369.577 355.103 520.2 286.747C670.823 218.391 623.582 145.872 774.204 77.5166C924.827 9.16067 972.068 81.6791 1122.73 13.3035C1273.4 -55.072 1226.12 -127.571 1376.74 -195.927" stroke="url(#paint12_angular_35_47)" stroke-miterlimit="10"/>
<path d="M-53.2852 1203.76C97.3376 1135.4 144.483 1207.77 295.106 1139.42C445.728 1071.06 398.583 998.688 549.163 930.352C699.742 862.016 746.931 934.368 897.553 866.012C1048.18 797.656 1001.03 725.285 1151.65 656.929C1302.28 588.573 1349.42 660.944 1500.09 592.569C1650.75 524.193 1603.57 451.841 1754.19 383.485" stroke="url(#paint13_angular_35_47)" stroke-miterlimit="10"/>
<path d="M206.109 1601.95C356.732 1533.59 403.877 1605.96 554.5 1537.61C705.123 1469.25 657.978 1396.88 808.557 1328.54C959.137 1260.21 1006.33 1332.56 1156.95 1264.2C1307.57 1195.85 1260.43 1123.47 1411.05 1055.12C1561.67 986.763 1608.82 1059.13 1759.48 990.758C1910.15 922.383 1862.96 850.031 2013.58 781.675" stroke="url(#paint14_angular_35_47)" stroke-miterlimit="10"/>
<path d="M-525.023 479.602C-374.401 411.246 -327.256 483.617 -176.633 415.261C-26.01 346.905 -73.1551 274.534 77.4244 206.198C228.004 137.861 275.192 210.213 425.815 141.857C576.438 73.5013 529.293 1.13002 679.915 -67.2259C830.538 -135.582 877.683 -63.2105 1028.35 -131.586C1179.02 -199.962 1131.83 -272.313 1282.45 -340.669" stroke="url(#paint15_angular_35_47)" stroke-miterlimit="10"/>
<path d="M-147.672 1058.87C2.9509 990.511 50.096 1062.88 200.719 994.526C351.342 926.17 304.196 853.799 454.776 785.463C605.355 717.126 652.544 789.478 803.167 721.122C953.789 652.766 906.644 580.395 1057.27 512.039C1207.89 443.683 1255.03 516.054 1405.7 447.679C1556.37 379.303 1509.18 306.952 1659.8 238.596" stroke="url(#paint16_angular_35_47)" stroke-miterlimit="10"/>
<path d="M111.816 1457.2C262.439 1388.85 309.584 1461.22 460.207 1392.86C610.83 1324.51 563.685 1252.14 714.264 1183.8C864.844 1115.46 912.032 1187.81 1062.65 1119.46C1213.28 1051.1 1166.13 978.731 1316.76 910.375C1467.38 842.02 1514.52 914.391 1665.19 846.015C1815.86 777.64 1768.67 705.288 1919.29 636.932" stroke="url(#paint17_angular_35_47)" stroke-miterlimit="10"/>
<path d="M-336.348 769.234C-185.725 700.878 -138.58 773.249 12.043 704.893C162.666 636.538 115.521 564.166 266.1 495.83C416.68 427.494 463.868 499.845 614.491 431.49C765.114 363.134 717.968 290.762 868.591 222.406C1019.21 154.051 1066.36 226.422 1217.03 158.046C1367.69 89.6707 1320.5 17.3191 1471.13 -51.0368" stroke="url(#paint18_angular_35_47)" stroke-miterlimit="10"/>
<path d="M41.0039 1348.5C191.627 1280.14 238.772 1352.51 389.395 1284.16C540.017 1215.8 492.872 1143.43 643.452 1075.09C794.031 1006.76 841.22 1079.11 991.842 1010.75C1142.47 942.398 1095.32 870.027 1245.94 801.671C1396.57 733.315 1443.71 805.687 1594.38 737.311C1745.04 668.935 1697.85 596.584 1848.48 528.228" stroke="url(#paint19_angular_35_47)" stroke-miterlimit="10"/>
<path d="M300.496 1746.84C451.119 1678.48 498.264 1750.85 648.887 1682.49C799.51 1614.14 752.364 1541.77 902.944 1473.43C1053.52 1405.1 1100.71 1477.45 1251.33 1409.09C1401.96 1340.73 1354.81 1268.36 1505.43 1200.01C1656.06 1131.65 1703.2 1204.02 1853.87 1135.65C2004.54 1067.27 1957.35 994.92 2107.97 926.565" stroke="url(#paint20_angular_35_47)" stroke-miterlimit="10"/>
<path d="M-642.98 298.526C-492.358 230.17 -445.213 302.541 -294.59 234.185C-143.967 165.83 -191.112 93.4582 -40.5327 25.122C110.047 -43.2142 157.235 29.1374 307.858 -39.2185C458.481 -107.574 411.336 -179.946 561.958 -248.302C712.581 -316.657 759.726 -244.286 910.392 -312.662C1061.06 -381.037 1013.87 -453.389 1164.49 -521.745" stroke="url(#paint21_angular_35_47)" stroke-miterlimit="10"/>
<path d="M-265.629 877.791C-115.006 809.435 -67.7652 881.954 82.8576 813.598C233.48 745.242 186.239 672.724 336.819 604.387C487.398 536.051 534.683 608.55 685.305 540.194C835.928 471.838 788.687 399.32 939.31 330.964C1089.93 262.608 1137.17 335.126 1287.84 266.751C1438.51 198.375 1391.22 125.876 1541.84 57.5206" stroke="url(#paint22_angular_35_47)" stroke-miterlimit="10"/>
<path d="M-454.305 588.158C-303.682 519.802 -256.537 592.174 -105.914 523.818C44.7088 455.462 -2.43634 383.091 148.143 314.754C298.723 246.418 345.911 318.77 496.534 250.414C647.157 182.058 600.011 109.687 750.634 41.3308C901.257 -27.0251 948.402 45.3462 1099.07 -23.0294C1249.73 -91.4049 1202.55 -163.757 1353.17 -232.112" stroke="url(#paint23_angular_35_47)" stroke-miterlimit="10"/>
<path d="M-76.9531 1167.42C73.6697 1099.07 120.911 1171.59 271.533 1103.23C422.156 1034.87 374.915 962.356 525.495 894.02C676.074 825.683 723.358 898.182 873.981 829.826C1024.6 761.47 977.363 688.952 1127.99 620.596C1278.61 552.24 1325.85 624.759 1476.52 556.383C1627.18 488.008 1579.9 415.509 1730.52 347.153" stroke="url(#paint24_angular_35_47)" stroke-miterlimit="10"/>
<path d="M182.535 1565.76C333.158 1497.4 380.303 1569.78 530.926 1501.42C681.549 1433.06 634.404 1360.69 784.983 1292.36C935.562 1224.02 982.751 1296.37 1133.37 1228.02C1284 1159.66 1236.85 1087.29 1387.47 1018.93C1538.1 950.577 1585.24 1022.95 1735.91 954.573C1886.57 886.197 1839.39 813.845 1990.01 745.49" stroke="url(#paint25_angular_35_47)" stroke-miterlimit="10"/>
<path d="M-548.598 443.416C-397.975 375.06 -350.83 447.431 -200.207 379.075C-49.5842 310.719 -96.7293 238.348 53.8501 170.012C204.43 101.675 251.618 174.027 402.241 105.671C552.864 37.3153 505.718 -35.056 656.341 -103.412C806.964 -171.768 854.109 -99.3965 1004.78 -167.772C1155.44 -236.148 1108.25 -308.499 1258.88 -376.855" stroke="url(#paint26_angular_35_47)" stroke-miterlimit="10"/>
<path d="M-171.242 1022.68C-20.6194 954.325 26.5257 1026.7 177.148 958.34C327.771 889.984 280.626 817.613 431.206 749.277C581.785 680.941 628.973 753.292 779.596 684.936C930.219 616.58 883.074 544.209 1033.7 475.853C1184.32 407.497 1231.46 479.869 1382.13 411.493C1532.8 343.118 1485.61 270.766 1636.23 202.41" stroke="url(#paint27_angular_35_47)" stroke-miterlimit="10"/>
<path d="M88.1484 1420.87C238.771 1352.51 286.012 1425.03 436.635 1356.68C587.258 1288.32 540.017 1215.8 690.596 1147.47C841.176 1079.13 888.46 1151.63 1039.08 1083.27C1189.71 1014.92 1142.46 942.399 1293.09 874.043C1443.71 805.687 1490.95 878.205 1641.62 809.83C1792.28 741.454 1745 668.955 1895.62 600.599" stroke="url(#paint28_angular_35_47)" stroke-miterlimit="10"/>
<path d="M-359.918 733.048C-209.295 664.692 -162.15 737.064 -11.5273 668.708C139.095 600.352 91.9504 527.98 242.53 459.644C393.109 391.308 440.298 463.66 590.92 395.304C741.543 326.948 694.398 254.577 845.021 186.221C995.644 117.865 1042.79 190.236 1193.45 121.861C1344.12 53.485 1296.93 -18.8667 1447.56 -87.2226" stroke="url(#paint29_angular_35_47)" stroke-miterlimit="10"/>
<path d="M17.4336 1312.31C168.056 1243.96 215.201 1316.33 365.824 1247.97C516.447 1179.62 469.302 1107.25 619.881 1038.91C770.461 970.573 817.649 1042.92 968.272 974.569C1118.89 906.213 1071.75 833.841 1222.37 765.486C1373 697.13 1420.14 769.501 1570.81 701.125C1721.47 632.75 1674.28 560.398 1824.91 492.042" stroke="url(#paint30_angular_35_47)" stroke-miterlimit="10"/>
<path d="M276.922 1710.65C427.545 1642.29 474.69 1714.67 625.313 1646.31C775.935 1577.95 728.79 1505.58 879.37 1437.25C1029.95 1368.91 1077.14 1441.26 1227.76 1372.91C1378.38 1304.55 1331.24 1232.18 1481.86 1163.82C1632.48 1095.47 1679.63 1167.84 1830.29 1099.46C1980.96 1031.09 1933.77 958.736 2084.4 890.38" stroke="url(#paint31_angular_35_47)" stroke-miterlimit="10"/>
<path d="M-595.836 370.897C-445.213 302.542 -397.972 375.06 -247.349 306.704C-96.7267 238.348 -143.968 165.83 6.61185 97.4936C157.191 29.1573 204.476 101.656 355.098 33.3002C505.721 -35.0557 458.48 -107.574 609.103 -175.93C759.726 -244.286 806.967 -171.767 957.633 -240.143C1108.3 -308.519 1061.01 -381.017 1211.64 -449.373" stroke="url(#paint32_angular_35_47)" stroke-miterlimit="10"/>
<path d="M-218.391 950.31C-67.7678 881.954 -20.6227 954.325 130 885.969C280.623 817.613 233.478 745.242 384.057 676.906C534.637 608.569 581.825 680.921 732.448 612.565C883.071 544.209 835.925 471.838 986.548 403.482C1137.17 335.126 1184.32 407.498 1334.98 339.122C1485.65 270.746 1438.46 198.395 1589.08 130.039" stroke="url(#paint33_angular_35_47)" stroke-miterlimit="10"/>
<path d="M-407.16 660.53C-256.537 592.174 -209.296 664.692 -58.6737 596.336C91.9491 527.98 44.7082 455.462 195.288 387.126C345.867 318.789 393.151 391.288 543.774 322.932C694.397 254.576 647.156 182.058 797.779 113.702C948.401 45.3462 995.642 117.865 1146.31 49.4891C1296.97 -18.8865 1249.69 -91.3853 1400.31 -159.741" stroke="url(#paint34_angular_35_47)" stroke-miterlimit="10"/>
<path d="M-29.7109 1239.94C120.912 1171.59 168.057 1243.96 318.68 1175.6C469.303 1107.25 422.157 1034.87 572.737 966.538C723.316 898.202 770.505 970.553 921.128 902.198C1071.75 833.842 1024.61 761.47 1175.23 693.114C1325.85 624.759 1373 697.13 1523.66 628.754C1674.33 560.379 1627.14 488.027 1777.76 419.671" stroke="url(#paint35_angular_35_47)" stroke-miterlimit="10"/>
<path d="M229.68 1638.13C380.302 1569.78 427.543 1642.29 578.166 1573.94C728.789 1505.58 681.548 1433.06 832.127 1364.73C982.707 1296.39 1029.99 1368.89 1180.61 1300.53C1331.24 1232.18 1284 1159.66 1434.62 1091.3C1585.24 1022.95 1632.48 1095.47 1783.15 1027.09C1933.81 958.715 1886.53 886.216 2037.15 817.86" stroke="url(#paint36_angular_35_47)" stroke-miterlimit="10"/>
<path d="M-501.449 515.787C-350.826 447.431 -303.681 519.803 -153.058 451.447C-2.43553 383.091 -49.5806 310.719 100.999 242.383C251.578 174.047 298.767 246.399 449.389 178.043C600.012 109.687 552.867 37.3156 703.49 -31.0403C854.113 -99.3962 901.258 -27.0249 1051.92 -95.4005C1202.59 -163.776 1155.4 -236.128 1306.02 -304.484" stroke="url(#paint37_angular_35_47)" stroke-miterlimit="10"/>
<path d="M-124.098 1095.05C26.5251 1026.7 73.6702 1099.07 224.293 1030.71C374.916 962.356 327.771 889.984 478.35 821.648C628.93 753.312 676.118 825.664 826.741 757.308C977.364 688.952 930.218 616.58 1080.84 548.225C1231.46 479.869 1278.61 552.24 1429.28 483.864C1579.94 415.489 1532.75 343.137 1683.38 274.781" stroke="url(#paint38_angular_35_47)" stroke-miterlimit="10"/>
<path d="M135.391 1493.39C286.013 1425.03 333.159 1497.4 483.781 1429.05C634.404 1360.69 587.259 1288.32 737.838 1219.98C888.418 1151.65 935.606 1224 1086.23 1155.64C1236.85 1087.29 1189.71 1014.92 1340.33 946.561C1490.95 878.205 1538.1 950.577 1688.76 882.201C1839.43 813.826 1792.24 741.474 1942.86 673.118" stroke="url(#paint39_angular_35_47)" stroke-miterlimit="10"/>
<path d="M-312.777 805.42C-162.155 737.064 -115.009 809.435 35.6133 741.079C186.236 672.723 139.091 600.352 289.67 532.016C440.25 463.68 487.438 536.031 638.061 467.675C788.684 399.319 741.539 326.948 892.161 258.592C1042.78 190.236 1089.93 262.608 1240.6 194.232C1391.26 125.857 1344.07 53.5049 1494.7 -14.851" stroke="url(#paint40_angular_35_47)" stroke-miterlimit="10"/>
<path d="M64.5781 1384.68C215.201 1316.33 262.442 1388.85 413.065 1320.49C563.687 1252.14 516.446 1179.62 667.026 1111.28C817.605 1042.94 864.89 1115.44 1015.51 1047.09C1166.14 978.731 1118.89 906.213 1269.52 837.857C1420.14 769.501 1467.38 842.019 1618.05 773.644C1768.71 705.268 1721.43 632.77 1872.05 564.414" stroke="url(#paint41_angular_35_47)" stroke-miterlimit="10"/>
<path d="M324.066 1783.02C474.689 1714.67 521.834 1787.04 672.457 1718.68C823.08 1650.32 775.935 1577.95 926.514 1509.62C1077.09 1441.28 1124.28 1513.63 1274.9 1445.28C1425.53 1376.92 1378.38 1304.55 1529.01 1236.19C1679.63 1167.84 1726.77 1240.21 1877.44 1171.83C2028.11 1103.46 1980.92 1031.11 2131.54 962.751" stroke="url(#paint42_angular_35_47)" stroke-miterlimit="10"/>
</g>
<defs>
<radialGradient id="paint0_angular_35_47" cx="0" cy="0" r="1" gradientUnits="userSpaceOnUse" gradientTransform="translate(260.755 -111.609) rotate(56.9184) scale(43.1864 981.101)">
<stop offset="0.407699" stop-color="#00CC74"/>
<stop offset="1" stop-color="#3574F2"/>
</radialGradient>
<radialGradient id="paint1_angular_35_47" cx="0" cy="0" r="1" gradientUnits="userSpaceOnUse" gradientTransform="translate(638.106 467.655) rotate(56.9184) scale(43.1864 981.101)">
<stop offset="0.407699" stop-color="#00CC74"/>
<stop offset="1" stop-color="#3574F2"/>
</radialGradient>
<radialGradient id="paint2_angular_35_47" cx="0" cy="0" r="1" gradientUnits="userSpaceOnUse" gradientTransform="translate(449.431 178.023) rotate(56.9184) scale(43.1864 981.101)">
<stop offset="0.407699" stop-color="#00CC74"/>
<stop offset="1" stop-color="#3574F2"/>
</radialGradient>
<radialGradient id="paint3_angular_35_47" cx="0" cy="0" r="1" gradientUnits="userSpaceOnUse" gradientTransform="translate(826.83 757.362) rotate(56.9184) scale(43.2742 981.101)">
<stop offset="0.407699" stop-color="#00CC74"/>
<stop offset="1" stop-color="#3574F2"/>
</radialGradient>
<radialGradient id="paint4_angular_35_47" cx="0" cy="0" r="1" gradientUnits="userSpaceOnUse" gradientTransform="translate(1086.27 1155.62) rotate(56.9184) scale(43.1864 981.101)">
<stop offset="0.407699" stop-color="#00CC74"/>
<stop offset="1" stop-color="#3574F2"/>
</radialGradient>
<radialGradient id="paint5_angular_35_47" cx="0" cy="0" r="1" gradientUnits="userSpaceOnUse" gradientTransform="translate(355.092 33.2069) rotate(56.9184) scale(43.2742 981.101)">
<stop offset="0.407699" stop-color="#00CC74"/>
<stop offset="1" stop-color="#3574F2"/>
</radialGradient>
<radialGradient id="paint6_angular_35_47" cx="0" cy="0" r="1" gradientUnits="userSpaceOnUse" gradientTransform="translate(732.493 612.545) rotate(56.9184) scale(43.1864 981.101)">
<stop offset="0.407699" stop-color="#00CC74"/>
<stop offset="1" stop-color="#3574F2"/>
</radialGradient>
<radialGradient id="paint7_angular_35_47" cx="0" cy="0" r="1" gradientUnits="userSpaceOnUse" gradientTransform="translate(543.817 322.913) rotate(56.9184) scale(43.1864 981.101)">
<stop offset="0.407699" stop-color="#00CC74"/>
<stop offset="1" stop-color="#3574F2"/>
</radialGradient>
<radialGradient id="paint8_angular_35_47" cx="0" cy="0" r="1" gradientUnits="userSpaceOnUse" gradientTransform="translate(921.169 902.178) rotate(56.9184) scale(43.1864 981.101)">
<stop offset="0.407699" stop-color="#00CC74"/>
<stop offset="1" stop-color="#3574F2"/>
</radialGradient>
<radialGradient id="paint9_angular_35_47" cx="0" cy="0" r="1" gradientUnits="userSpaceOnUse" gradientTransform="translate(1180.61 1300.44) rotate(56.9184) scale(43.2742 981.101)">
<stop offset="0.407699" stop-color="#00CC74"/>
<stop offset="1" stop-color="#3574F2"/>
</radialGradient>
<radialGradient id="paint10_angular_35_47" cx="0" cy="0" r="1" gradientUnits="userSpaceOnUse" gradientTransform="translate(307.899 -39.2383) rotate(56.9184) scale(43.1864 981.101)">
<stop offset="0.407699" stop-color="#00CC74"/>
<stop offset="1" stop-color="#3574F2"/>
</radialGradient>
<radialGradient id="paint11_angular_35_47" cx="0" cy="0" r="1" gradientUnits="userSpaceOnUse" gradientTransform="translate(685.299 540.1) rotate(56.9184) scale(43.2742 981.101)">
<stop offset="0.407699" stop-color="#00CC74"/>
<stop offset="1" stop-color="#3574F2"/>
</radialGradient>
<radialGradient id="paint12_angular_35_47" cx="0" cy="0" r="1" gradientUnits="userSpaceOnUse" gradientTransform="translate(496.623 250.468) rotate(56.9184) scale(43.2742 981.101)">
<stop offset="0.407699" stop-color="#00CC74"/>
<stop offset="1" stop-color="#3574F2"/>
</radialGradient>
<radialGradient id="paint13_angular_35_47" cx="0" cy="0" r="1" gradientUnits="userSpaceOnUse" gradientTransform="translate(874.024 829.806) rotate(56.9184) scale(43.1864 981.101)">
<stop offset="0.407699" stop-color="#00CC74"/>
<stop offset="1" stop-color="#3574F2"/>
</radialGradient>
<radialGradient id="paint14_angular_35_47" cx="0" cy="0" r="1" gradientUnits="userSpaceOnUse" gradientTransform="translate(1133.42 1228) rotate(56.9184) scale(43.1864 981.101)">
<stop offset="0.407699" stop-color="#00CC74"/>
<stop offset="1" stop-color="#3574F2"/>
</radialGradient>
<radialGradient id="paint15_angular_35_47" cx="0" cy="0" r="1" gradientUnits="userSpaceOnUse" gradientTransform="translate(402.286 105.652) rotate(56.9184) scale(43.1864 981.101)">
<stop offset="0.407699" stop-color="#00CC74"/>
<stop offset="1" stop-color="#3574F2"/>
</radialGradient>
<radialGradient id="paint16_angular_35_47" cx="0" cy="0" r="1" gradientUnits="userSpaceOnUse" gradientTransform="translate(779.637 684.917) rotate(56.9184) scale(43.1864 981.101)">
<stop offset="0.407699" stop-color="#00CC74"/>
<stop offset="1" stop-color="#3574F2"/>
</radialGradient>
<radialGradient id="paint17_angular_35_47" cx="0" cy="0" r="1" gradientUnits="userSpaceOnUse" gradientTransform="translate(1039.13 1083.25) rotate(56.9184) scale(43.1864 981.101)">
<stop offset="0.407699" stop-color="#00CC74"/>
<stop offset="1" stop-color="#3574F2"/>
</radialGradient>
<radialGradient id="paint18_angular_35_47" cx="0" cy="0" r="1" gradientUnits="userSpaceOnUse" gradientTransform="translate(590.962 395.284) rotate(56.9184) scale(43.1864 981.101)">
<stop offset="0.407699" stop-color="#00CC74"/>
<stop offset="1" stop-color="#3574F2"/>
</radialGradient>
<radialGradient id="paint19_angular_35_47" cx="0" cy="0" r="1" gradientUnits="userSpaceOnUse" gradientTransform="translate(968.313 974.549) rotate(56.9184) scale(43.1864 981.101)">
<stop offset="0.407699" stop-color="#00CC74"/>
<stop offset="1" stop-color="#3574F2"/>
</radialGradient>
<radialGradient id="paint20_angular_35_47" cx="0" cy="0" r="1" gradientUnits="userSpaceOnUse" gradientTransform="translate(1227.81 1372.89) rotate(56.9184) scale(43.1864 981.101)">
<stop offset="0.407699" stop-color="#00CC74"/>
<stop offset="1" stop-color="#3574F2"/>
</radialGradient>
<radialGradient id="paint21_angular_35_47" cx="0" cy="0" r="1" gradientUnits="userSpaceOnUse" gradientTransform="translate(284.329 -75.4238) rotate(56.9184) scale(43.1864 981.101)">
<stop offset="0.407699" stop-color="#00CC74"/>
<stop offset="1" stop-color="#3574F2"/>
</radialGradient>
<radialGradient id="paint22_angular_35_47" cx="0" cy="0" r="1" gradientUnits="userSpaceOnUse" gradientTransform="translate(661.728 503.915) rotate(56.9184) scale(43.2742 981.101)">
<stop offset="0.407699" stop-color="#00CC74"/>
<stop offset="1" stop-color="#3574F2"/>
</radialGradient>
<radialGradient id="paint23_angular_35_47" cx="0" cy="0" r="1" gradientUnits="userSpaceOnUse" gradientTransform="translate(473.005 214.209) rotate(56.9184) scale(43.1864 981.101)">
<stop offset="0.407699" stop-color="#00CC74"/>
<stop offset="1" stop-color="#3574F2"/>
</radialGradient>
<radialGradient id="paint24_angular_35_47" cx="0" cy="0" r="1" gradientUnits="userSpaceOnUse" gradientTransform="translate(850.404 793.547) rotate(56.9184) scale(43.2742 981.101)">
<stop offset="0.407699" stop-color="#00CC74"/>
<stop offset="1" stop-color="#3574F2"/>
</radialGradient>
<radialGradient id="paint25_angular_35_47" cx="0" cy="0" r="1" gradientUnits="userSpaceOnUse" gradientTransform="translate(1109.84 1191.81) rotate(56.9184) scale(43.1864 981.101)">
<stop offset="0.407699" stop-color="#00CC74"/>
<stop offset="1" stop-color="#3574F2"/>
</radialGradient>
<radialGradient id="paint26_angular_35_47" cx="0" cy="0" r="1" gradientUnits="userSpaceOnUse" gradientTransform="translate(378.712 69.4658) rotate(56.9184) scale(43.1864 981.101)">
<stop offset="0.407699" stop-color="#00CC74"/>
<stop offset="1" stop-color="#3574F2"/>
</radialGradient>
<radialGradient id="paint27_angular_35_47" cx="0" cy="0" r="1" gradientUnits="userSpaceOnUse" gradientTransform="translate(756.067 648.731) rotate(56.9184) scale(43.1864 981.101)">
<stop offset="0.407699" stop-color="#00CC74"/>
<stop offset="1" stop-color="#3574F2"/>
</radialGradient>
<radialGradient id="paint28_angular_35_47" cx="0" cy="0" r="1" gradientUnits="userSpaceOnUse" gradientTransform="translate(1015.51 1046.99) rotate(56.9184) scale(43.2742 981.101)">
<stop offset="0.407699" stop-color="#00CC74"/>
<stop offset="1" stop-color="#3574F2"/>
</radialGradient>
<radialGradient id="paint29_angular_35_47" cx="0" cy="0" r="1" gradientUnits="userSpaceOnUse" gradientTransform="translate(567.391 359.098) rotate(56.9184) scale(43.1864 981.101)">
<stop offset="0.407699" stop-color="#00CC74"/>
<stop offset="1" stop-color="#3574F2"/>
</radialGradient>
<radialGradient id="paint30_angular_35_47" cx="0" cy="0" r="1" gradientUnits="userSpaceOnUse" gradientTransform="translate(944.743 938.363) rotate(56.9184) scale(43.1864 981.101)">
<stop offset="0.407699" stop-color="#00CC74"/>
<stop offset="1" stop-color="#3574F2"/>
</radialGradient>
<radialGradient id="paint31_angular_35_47" cx="0" cy="0" r="1" gradientUnits="userSpaceOnUse" gradientTransform="translate(1204.23 1336.7) rotate(56.9184) scale(43.1864 981.101)">
<stop offset="0.407699" stop-color="#00CC74"/>
<stop offset="1" stop-color="#3574F2"/>
</radialGradient>
<radialGradient id="paint32_angular_35_47" cx="0" cy="0" r="1" gradientUnits="userSpaceOnUse" gradientTransform="translate(331.521 -2.97868) rotate(56.9184) scale(43.2742 981.101)">
<stop offset="0.407699" stop-color="#00CC74"/>
<stop offset="1" stop-color="#3574F2"/>
</radialGradient>
<radialGradient id="paint33_angular_35_47" cx="0" cy="0" r="1" gradientUnits="userSpaceOnUse" gradientTransform="translate(708.919 576.36) rotate(56.9184) scale(43.1864 981.101)">
<stop offset="0.407699" stop-color="#00CC74"/>
<stop offset="1" stop-color="#3574F2"/>
</radialGradient>
<radialGradient id="paint34_angular_35_47" cx="0" cy="0" r="1" gradientUnits="userSpaceOnUse" gradientTransform="translate(520.197 286.653) rotate(56.9184) scale(43.2742 981.101)">
<stop offset="0.407699" stop-color="#00CC74"/>
<stop offset="1" stop-color="#3574F2"/>
</radialGradient>
<radialGradient id="paint35_angular_35_47" cx="0" cy="0" r="1" gradientUnits="userSpaceOnUse" gradientTransform="translate(897.598 865.992) rotate(56.9184) scale(43.1864 981.101)">
<stop offset="0.407699" stop-color="#00CC74"/>
<stop offset="1" stop-color="#3574F2"/>
</radialGradient>
<radialGradient id="paint36_angular_35_47" cx="0" cy="0" r="1" gradientUnits="userSpaceOnUse" gradientTransform="translate(1157.04 1264.25) rotate(56.9184) scale(43.2742 981.101)">
<stop offset="0.407699" stop-color="#00CC74"/>
<stop offset="1" stop-color="#3574F2"/>
</radialGradient>
<radialGradient id="paint37_angular_35_47" cx="0" cy="0" r="1" gradientUnits="userSpaceOnUse" gradientTransform="translate(425.86 141.837) rotate(56.9184) scale(43.1864 981.101)">
<stop offset="0.407699" stop-color="#00CC74"/>
<stop offset="1" stop-color="#3574F2"/>
</radialGradient>
<radialGradient id="paint38_angular_35_47" cx="0" cy="0" r="1" gradientUnits="userSpaceOnUse" gradientTransform="translate(803.212 721.102) rotate(56.9184) scale(43.1864 981.101)">
<stop offset="0.407699" stop-color="#00CC74"/>
<stop offset="1" stop-color="#3574F2"/>
</radialGradient>
<radialGradient id="paint39_angular_35_47" cx="0" cy="0" r="1" gradientUnits="userSpaceOnUse" gradientTransform="translate(1062.7 1119.44) rotate(56.9184) scale(43.1864 981.101)">
<stop offset="0.407699" stop-color="#00CC74"/>
<stop offset="1" stop-color="#3574F2"/>
</radialGradient>
<radialGradient id="paint40_angular_35_47" cx="0" cy="0" r="1" gradientUnits="userSpaceOnUse" gradientTransform="translate(614.532 431.47) rotate(56.9184) scale(43.1864 981.101)">
<stop offset="0.407699" stop-color="#00CC74"/>
<stop offset="1" stop-color="#3574F2"/>
</radialGradient>
<radialGradient id="paint41_angular_35_47" cx="0" cy="0" r="1" gradientUnits="userSpaceOnUse" gradientTransform="translate(991.935 1010.81) rotate(56.9184) scale(43.2742 981.101)">
<stop offset="0.407699" stop-color="#00CC74"/>
<stop offset="1" stop-color="#3574F2"/>
</radialGradient>
<radialGradient id="paint42_angular_35_47" cx="0" cy="0" r="1" gradientUnits="userSpaceOnUse" gradientTransform="translate(1251.38 1409.07) rotate(56.9184) scale(43.1864 981.101)">
<stop offset="0.407699" stop-color="#00CC74"/>
<stop offset="1" stop-color="#3574F2"/>
</radialGradient>
<clipPath id="clip0_35_47">
<rect width="1512" height="1262" fill="white"/>
</clipPath>
</defs>
</svg>
